<?xml version="1.0" encoding="UTF-8" standalone="no"?><!DOCTYPE svg PUBLIC "-//W3C//DTD SVG 1.1//EN" "http://www.w3.org/Graphics/SVG/1.1/DTD/svg11.dtd"><svg width="100%" height="100%" viewBox="0 0 3000 3000" version="1.1" xmlns="http://www.w3.org/2000/svg" xmlns:xlink="http://www.w3.org/1999/xlink" xml:space="preserve" xmlns:serif="http://www.serif.com/" style="fill-rule:evenodd;clip-rule:evenodd;stroke-linejoin:round;stroke-miterlimit:2;"><rect x="0" y="0" width="3000" height="3000" style="fill:none;"/><g><g><path d="M1661.05,1439.72c-18.672,5.003 -30.823,-1.431 -36.455,-19.303c-9.696,-30.686 4.284,-84.252 41.941,-160.7c13.416,-26.978 29.095,-55.141 47.036,-84.49c17.942,-29.349 31.605,-52.654 40.988,-69.914c9.384,-17.261 16.468,-31.904 21.251,-43.929c8.625,-21.27 10.984,-38.017 7.076,-50.242c-7.499,-23.269 -30.411,-29.769 -68.738,-19.5c-44.42,11.902 -83.269,39.481 -116.549,82.735c-19.657,25.701 -31.732,50.213 -36.226,73.536c-2.228,11.341 -1.895,21.626 1,30.857c2.895,9.231 7.765,15.615 14.611,19.152c6.847,3.537 14.348,4.213 22.505,2.028c8.157,-2.186 16.484,-6.682 24.983,-13.488c8.498,-6.807 16.995,-15.192 25.489,-25.158c8.495,-9.965 16.71,-21.171 24.644,-33.62c7.935,-12.448 15.099,-25.217 21.493,-38.305c13.939,-28.172 22.664,-53.787 26.175,-76.847c1.172,-6.634 2.397,-10.122 3.674,-10.464c1.278,-0.342 2.489,1.229 3.633,4.714c3.118,9.276 2.991,23.741 -0.38,43.392c-3.372,19.652 -8.995,38.17 -16.872,55.553c-7.876,17.383 -17.128,32.976 -27.754,46.777c-21.829,28.6 -46.698,46.639 -74.608,54.118c-14.348,3.844 -26.331,3.737 -35.95,-0.321c-9.619,-4.058 -16.074,-11.44 -19.363,-22.145c-3.29,-10.704 -3.845,-22.405 -1.664,-35.102c2.18,-12.697 6.562,-25.826 13.145,-39.387c6.583,-13.561 15.13,-27.068 25.639,-40.522c10.509,-13.455 22.428,-25.97 35.757,-37.546c29.042,-25.267 59.581,-42.192 91.619,-50.776c17.885,-4.793 33.306,-5.028 46.261,-0.705c56.043,18.9 35.084,116.784 -62.878,293.653c-32.331,58.589 -50.882,93.526 -55.653,104.81c-4.771,11.285 -7.88,19.333 -9.33,24.145c-4.726,15.381 -2.61,25.242 6.347,29.583c3.633,1.765 9.429,1.581 17.389,-0.552c7.961,-2.133 18.436,-8.047 31.427,-17.742c12.991,-9.696 26.751,-22.81 41.28,-39.342c33.955,-38.38 62.723,-84.323 86.304,-137.829c2.418,-5.914 5.96,-13.92 10.628,-24.018l88.505,-187.397l28.42,-57.856l42.748,-11.455c-0.614,1.639 -2.516,5.941 -5.705,12.905l-90.001,186.532c-15.809,31.411 -29.661,58.137 -41.556,80.178c-11.895,22.041 -22.411,46.083 -31.548,72.125c-9.138,26.042 -11.384,46.551 -6.739,61.527c4.262,12.762 14.058,17.088 29.389,12.981c17.886,-4.793 36.971,-20.44 57.255,-46.941c5.798,-7.452 10.685,-14.765 14.661,-21.939c2.727,0.744 4.053,2.548 3.978,5.412c-0.075,2.864 -0.257,4.545 -0.545,5.043c-16.367,24.609 -34.19,43.394 -53.469,56.354c-7.518,4.963 -15.256,8.511 -23.217,10.644c-7.96,2.133 -15.926,1.687 -23.899,-1.337c-7.973,-3.025 -13.781,-10.159 -17.426,-21.4c-5.947,-19.051 -4.782,-42.22 3.495,-69.506c-44.422,64.567 -84.072,107.633 -118.951,129.197c-9.771,5.989 -18.194,9.931 -25.27,11.827Z" style="fill:#fff;fill-rule:nonzero;"/><path d="M2084.81,1063.59c-0.874,3.815 -2.588,6.065 -5.143,6.75c-1.573,0.421 -2.728,-0.744 -3.465,-3.496c-1.948,-7.272 -0.026,-16.213 5.768,-26.824c9.665,-18.178 19.705,-28.663 30.122,-31.454c8.255,-2.212 18.093,-1.267 29.515,2.835c17.427,6.074 29.678,8.163 36.754,6.267c13.168,-3.528 20.896,-13.604 23.183,-30.227c1.07,-3.868 2.588,-6.065 4.553,-6.592c1.966,-0.526 3.317,0.586 4.055,3.338c1.895,7.075 0.071,15.991 -5.473,26.745c-9.272,18.073 -19.608,28.637 -31.007,31.691c-6.683,1.791 -13.21,1.802 -19.582,0.034c-6.373,-1.769 -12.784,-3.685 -19.236,-5.748c-12.207,-3.891 -21.751,-4.915 -28.63,-3.072c-12.382,3.318 -19.52,13.236 -21.414,29.753Zm-86.666,279.171c-5.57,0.44 -11.598,1.528 -18.084,3.266c-10.417,2.791 -19.293,6.223 -26.628,10.295l63.12,-173.642c7.983,-21.309 11.723,-33.687 11.221,-37.134c-0.952,-6.696 -3.884,-9.387 -8.798,-8.07c-7.272,1.949 -20.536,24.778 -39.79,68.487l-12.628,28.347c-1.362,1.208 -3.102,1.2 -5.22,-0.023c-2.118,-1.223 -2.89,-2.333 -2.314,-3.33c4.067,-7.62 8.437,-17.059 13.109,-28.318c4.673,-11.258 9.781,-22.264 15.326,-33.019c13.521,-26.585 26.669,-41.588 39.445,-45.012c21.62,-5.793 31.474,3.469 29.564,27.785c-0.309,5.139 -2.116,12.153 -5.421,21.044l-38.845,102.677l2.343,2.848c34.994,-67.519 60.565,-112.815 76.711,-135.89c15.428,-21.829 27.624,-35.472 36.59,-40.929c8.965,-5.457 16.543,-9.015 22.734,-10.674c6.192,-1.659 11.735,-2.196 16.632,-1.612c4.896,0.584 9.089,1.883 12.578,3.897c6.479,3.741 10.631,9.212 12.455,16.412c1.824,7.2 2.41,14.89 1.758,23.07c-0.653,8.18 -2.754,18.223 -6.305,30.128c-7.534,24.559 -22.397,57.929 -44.589,100.108c-9.338,17.038 -14,26.766 -13.984,29.184c0.016,2.418 0.182,4.217 0.498,5.396c1.212,4.521 7.861,5.162 19.949,1.923c12.087,-3.239 22.717,-8.773 31.89,-16.603c9.172,-7.829 17.792,-16.933 25.86,-27.31c8.069,-10.378 15.448,-21.361 22.139,-32.949c6.69,-11.588 12.552,-22.533 17.586,-32.835c5.034,-10.302 9.179,-19.207 12.433,-26.715c3.255,-7.507 5.504,-12.481 6.746,-14.921l7.534,3.353c-1.386,2.689 -3.765,7.961 -7.138,15.816c-3.372,7.856 -7.709,17.023 -13.012,27.502c-5.302,10.479 -11.456,21.713 -18.46,33.701c-7.005,11.989 -14.761,23.336 -23.268,34.042c-19.919,24.718 -39.903,39.763 -59.951,45.134c-17.689,4.74 -31.158,3.609 -40.407,-3.392c-2.9,-2.172 -4.85,-5.126 -5.85,-8.86c-1.001,-3.734 -1.606,-8.154 -1.815,-13.259c-0.209,-5.105 0.749,-11.945 2.875,-20.52c4.972,-18.395 13.405,-39.403 25.297,-63.024c11.893,-23.62 19.598,-39.483 23.114,-47.587c3.516,-8.105 6.188,-15.035 8.016,-20.792c3.369,-11.014 4.368,-19.076 2.999,-24.186c-1.896,-7.076 -7.561,-9.35 -16.995,-6.822c-19.458,5.214 -45.695,35.838 -78.711,91.872c-16.704,28.069 -34.88,64.012 -54.528,107.827l-17.781,43.314Z" style="fill:#fff;fill-rule:nonzero;"/><path d="M2414.02,1237.96c-19.655,5.267 -31.115,1.807 -34.38,-10.379c-2.686,-10.024 -0.356,-24.13 6.988,-42.319l12.254,-28.562l-3.264,-0.389c-22.118,49.532 -46.425,83.431 -72.919,101.695c-7.321,4.911 -13.93,8.156 -19.826,9.736c-24.175,6.478 -39.713,-3.157 -46.612,-28.905c-8.11,-30.268 -3.764,-62.399 13.038,-96.393c24.607,-51.253 53.965,-85.557 88.076,-102.913c10.231,-5.059 19.179,-8.615 26.844,-10.669c7.665,-2.054 13.854,-3.133 18.566,-3.236c4.712,-0.104 9.002,0.379 12.87,1.449c8.287,2.625 13.312,7.229 15.077,13.813c1.764,6.585 2.257,13.141 1.478,19.669l19.334,-43.415c5.728,0.151 10.852,-0.38 15.373,-1.591c11.596,-3.107 19.844,-5.738 24.744,-7.894l-67.282,146.319c-16.213,33.836 -22.818,56.356 -19.816,67.559c1.685,6.289 6.262,8.434 13.731,6.432c7.469,-2.001 15.462,-6.565 23.98,-13.693c8.518,-7.127 16.644,-15.519 24.379,-25.175c7.735,-9.657 15.013,-20.033 21.835,-31.13c6.822,-11.097 13.009,-21.813 18.561,-32.148c5.552,-10.335 10.328,-19.831 14.328,-28.486l9.886,-19.713l7.534,3.353l-10.454,21.129c-39.068,80.617 -77.176,125.903 -114.323,135.856Zm-110.104,-84.253c-18.707,41.035 -25.191,72.265 -19.451,93.688c2.634,9.828 8.373,13.556 17.217,11.186c28.696,-7.689 61.564,-50.517 98.603,-128.484l16.787,-36.413c7,-21.045 9.42,-35.597 7.261,-43.656c-3.686,-13.758 -12.409,-18.794 -26.167,-15.107c-18.672,5.003 -41.235,28.112 -67.688,69.327c-9.04,14.219 -17.894,30.705 -26.562,49.459Z" style="fill:#fff;fill-rule:nonzero;"/></g><g><path d="M1045.83,2001.8c3.536,-2.156 7.66,-4.118 12.371,-5.885c4.712,-1.767 11.196,-3.379 19.453,-4.835c8.257,-1.456 17.237,-0.741 26.941,2.146c34.254,-24.94 55.147,-56.123 62.681,-93.549c2.77,-13.259 3.034,-26.246 0.792,-38.962c-2.242,-12.716 -7.617,-22.921 -16.125,-30.615c-3.42,2.816 -6.796,5.881 -10.128,9.192l-10.405,10.519c-18.614,19.969 -33.955,39.19 -46.022,57.664c-20.413,31.013 -41.356,67.952 -62.829,110.815c-21.474,42.864 -44.585,79.333 -69.335,109.409c-24.75,30.075 -49.375,52.891 -73.875,68.449c-13.377,8.148 -31.048,14.159 -53.011,18.031c-14.367,2.534 -27.364,1.249 -38.99,-3.852c-11.462,-5.13 -18.066,-12.65 -19.813,-22.558c-1.835,-10.404 2.12,-17.912 11.864,-22.524c2.525,-1.127 5.109,-1.923 7.751,-2.389c2.643,-0.466 5.479,-0.072 8.509,1.182c3.031,1.253 4.874,3.738 5.529,7.453c0.655,3.716 -0.169,7.011 -2.471,9.886c-2.303,2.875 -5.807,4.727 -10.514,5.557c-4.706,0.83 -8.361,0.623 -10.964,-0.621l0.262,1.487c1.427,8.091 6.596,13.991 15.508,17.698c8.912,3.707 18.57,4.643 28.973,2.809c10.404,-1.835 18.729,-4.111 24.975,-6.83c6.247,-2.719 12.857,-6.993 19.833,-12.82c6.975,-5.827 14.579,-13.638 22.813,-23.433c8.234,-9.796 17.806,-22.381 28.717,-37.756l37.352,-56.135l49.391,-77.669c46.374,-75.946 93.139,-132.293 140.294,-169.044c-22.339,-15.642 -55.389,-19.605 -99.151,-11.888c-51.027,8.997 -98.089,36.621 -141.186,82.872c-20.742,22.387 -37.166,45.12 -49.273,68.198c-12.155,23.768 -16.878,43.331 -14.17,58.689c2.475,14.036 10.997,21.813 25.568,23.331c4.167,0.457 9.801,0.059 16.902,-1.193c7.101,-1.252 15.807,-4.745 26.119,-10.48c10.312,-5.734 20.43,-13.052 30.354,-21.953c9.923,-8.902 19.318,-19.114 28.183,-30.638c8.866,-11.525 16.558,-23.906 23.078,-37.145c14.536,-28.615 21.272,-57.046 20.207,-85.293c0.059,-5.46 0.873,-8.327 2.442,-8.604c1.569,-0.277 2.673,1.402 3.314,5.035c5.358,30.385 1.643,60.497 -11.145,90.336c-11.602,26.905 -29.386,50.133 -53.352,69.683c-23.365,19.104 -48.093,30.956 -74.184,35.557c-17.175,3.028 -30.118,-1.33 -38.829,-13.075c-3.069,-3.886 -5.463,-10.701 -7.181,-20.444c-1.718,-9.743 -0.572,-22.077 3.437,-37.001c4.009,-14.925 10.541,-29.784 19.596,-44.576c9.056,-14.793 20.355,-29.173 33.898,-43.139c13.542,-13.967 28.571,-26.748 45.086,-38.344c35.634,-24.843 74.506,-40.976 116.616,-48.402c42.11,-7.425 76.933,-4.03 104.469,10.185c22.675,-16.257 42.268,-25.842 58.782,-28.754c5.45,-0.961 8.32,-0.616 8.611,1.036c0.146,0.825 -1.231,1.707 -4.131,2.644c-2.9,0.937 -7.04,2.561 -12.422,4.872c-15.737,6.35 -30.202,14.605 -43.395,24.764c18.144,12.125 29.137,29.087 32.981,50.885c3.727,21.138 -2.439,44.105 -18.5,68.902c-14.865,22.883 -34.946,42.259 -60.243,58.128c15.279,9.395 24.811,24.827 28.596,46.295c3.232,18.33 -0.491,37.291 -11.169,56.882c-15.935,29.372 -41.048,51.594 -75.339,66.664c-11.065,4.846 -21.551,8.142 -31.46,9.89c-9.908,1.747 -17.657,2.219 -23.247,1.417c-5.59,-0.802 -10.187,-2.248 -13.791,-4.337c-6.624,-3.77 -10.511,-8.916 -11.661,-15.439c-1.15,-6.523 -0.581,-13.434 1.707,-20.734c2.289,-7.299 5.865,-14.783 10.728,-22.451c4.862,-7.669 10.883,-15.286 18.063,-22.852c7.18,-7.566 15.068,-14.491 23.666,-20.774c19.138,-14.102 38.532,-22.885 58.184,-26.35c3.468,-0.612 5.391,0.156 5.769,2.303c0.379,2.146 -2.859,3.824 -9.712,5.032c-6.853,1.209 -14.644,3.86 -23.372,7.953c-8.728,4.093 -17.09,9.058 -25.085,14.895c-7.996,5.836 -15.379,12.246 -22.15,19.23c-6.772,6.983 -12.509,14.039 -17.211,21.168c-10.386,15.453 -14.589,28.795 -12.609,40.024c2.387,13.541 14.893,18.317 37.517,14.328c15.853,-2.795 31.484,-11.681 46.892,-26.657c24.754,-23.776 39.28,-53.411 43.578,-88.904c1.323,-11.812 1.147,-22.465 -0.527,-31.961c-1.674,-9.495 -4.1,-16.006 -7.275,-19.533c-15.99,8.779 -29.807,14.195 -41.449,16.248c-11.642,2.053 -19.622,2.183 -23.939,0.39c-4.318,-1.793 -6.68,-3.845 -7.088,-6.157c-0.408,-2.312 0.336,-4.614 2.23,-6.906c1.895,-2.292 4.61,-4.516 8.146,-6.672Zm51.697,-3.752c-5.643,-2.07 -11.892,-2.501 -18.745,-1.293c-6.853,1.209 -11.929,2.359 -15.227,3.452c-3.297,1.092 -6.195,2.284 -8.691,3.575c-5.188,2.448 -7.621,4.579 -7.301,6.396c0.699,3.963 5.837,5.1 15.415,3.412c9.578,-1.689 21.094,-6.87 34.549,-15.542Z" style="fill:#fff;fill-rule:nonzero;"/><path d="M1319.33,2085.62c-6.11,1.077 -11.006,-0.614 -14.687,-5.073c-15.72,25.759 -34.334,44.28 -55.842,55.565c-7.189,3.651 -14.375,6.11 -21.558,7.377c-7.184,1.266 -13.481,1.525 -18.891,0.776c-5.411,-0.748 -10.029,-2.318 -13.856,-4.708c-15.415,-9.201 -20.244,-28.867 -14.49,-58.998c2.178,-11.792 5.684,-23.053 10.518,-33.781c4.834,-10.728 10.617,-20.9 17.35,-30.515c6.733,-9.616 14.238,-18.474 22.516,-26.574c18.769,-18.123 38.31,-28.976 58.622,-32.557c8.752,-1.543 16.707,-0.605 23.866,2.815c7.158,3.421 11.735,9.339 13.73,17.757c1.995,8.417 2.905,16.472 2.729,24.165c-0.176,7.693 -1.095,15.518 -2.757,23.473c-3.266,16.241 -9.155,32.093 -17.666,47.556c2,4.585 5.601,6.419 10.803,5.502c5.202,-0.917 9.945,-2.988 14.229,-6.212c4.284,-3.225 8.466,-7.027 12.547,-11.407c4.08,-4.381 8.005,-9.159 11.775,-14.336c3.769,-5.177 7.204,-10.082 10.303,-14.715l7.579,-12.064c2.089,-3.603 3.609,-6.085 4.561,-7.444l6.192,3.25c-1.797,2.36 -4.027,5.648 -6.689,9.863c-2.662,4.215 -5.693,8.751 -9.094,13.608c0,-0 -3.619,5.065 -10.857,15.195c-14.243,18.688 -27.887,29.181 -40.933,31.482Zm-97.339,49.089c2.875,0.855 6.708,0.861 11.497,0.016c10.733,-1.893 23.46,-10.351 38.178,-25.376c11.25,-11.519 20.849,-24.195 28.797,-38.026l-0.175,-0.991c-2.475,-14.036 0.946,-25.537 10.263,-34.501c2.458,-2.477 4.852,-4.347 7.184,-5.609c4.956,-18.242 6.24,-32.686 3.852,-43.332c-3.99,-16.835 -11.764,-24.233 -23.324,-22.195c-19.486,3.436 -42.944,30.219 -70.373,80.347c-17.615,32.393 -24.365,56.4 -20.248,72.02c1.601,9.083 6.384,14.965 14.349,17.647Z" style="fill:#fff;fill-rule:nonzero;"/><path d="M1404.8,2106.81c-4.604,-0.039 -9.631,0.421 -15.081,1.382c-8.752,1.544 -16.285,3.723 -22.6,6.539l64.29,-138.018c8.085,-16.92 12.044,-26.813 11.88,-29.679c-0.301,-5.566 -2.515,-7.985 -6.644,-7.257c-6.11,1.078 -18.638,18.867 -37.585,53.367l-12.402,22.364c-1.205,0.894 -2.633,0.762 -4.284,-0.394c-1.651,-1.156 -2.205,-2.122 -1.661,-2.899c3.887,-5.964 8.152,-13.399 12.796,-22.306c4.645,-8.907 9.629,-17.576 14.953,-26.007c13.01,-20.853 24.882,-32.226 35.616,-34.119c18.165,-3.203 25.59,5.108 22.275,24.933c-0.623,4.197 -2.61,9.825 -5.962,16.887l-39.265,81.502l1.719,2.507c33.578,-52.916 57.824,-88.266 72.737,-106.05c14.233,-16.812 25.226,-27.136 32.978,-30.972c7.752,-3.836 14.229,-6.213 19.431,-7.13c5.201,-0.917 9.791,-0.96 13.769,-0.129c3.977,0.831 7.326,2.199 10.046,4.103c5.05,3.537 8.066,8.326 9.046,14.368c0.98,6.042 0.909,12.397 -0.214,19.066c-1.123,6.668 -3.569,14.761 -7.34,24.28c-7.948,19.621 -22.547,45.948 -43.795,78.982c-8.89,13.316 -13.415,20.967 -13.576,22.954c-0.161,1.986 -0.153,3.475 0.021,4.466c0.67,3.798 6.083,4.801 16.239,3.011c10.156,-1.791 19.28,-5.571 27.372,-11.34c8.093,-5.769 15.823,-12.623 23.192,-20.563c7.369,-7.94 14.216,-16.426 20.541,-25.459c6.325,-9.033 11.924,-17.597 16.796,-25.693c4.873,-8.096 8.915,-15.109 12.126,-21.038c3.211,-5.93 5.414,-9.852 6.609,-11.765l5.945,3.294c-1.331,2.107 -3.663,6.264 -6.996,12.471c-3.333,6.207 -7.552,13.421 -12.658,21.643c-5.105,8.222 -10.964,17.002 -17.575,26.341c-6.612,9.339 -13.794,18.097 -21.547,26.275c-18.128,18.862 -35.614,29.777 -52.458,32.748c-14.863,2.62 -25.839,0.724 -32.929,-5.688c-2.224,-1.991 -3.613,-4.556 -4.166,-7.693c-0.554,-3.138 -0.733,-6.81 -0.538,-11.016c0.195,-4.206 1.473,-9.752 3.835,-16.639c5.402,-14.745 13.834,-31.386 25.294,-49.923c11.46,-18.537 18.924,-31.006 22.393,-37.407c3.468,-6.4 6.16,-11.898 8.074,-16.492c3.557,-8.8 4.956,-15.347 4.199,-19.641c-1.048,-5.945 -5.536,-8.218 -13.462,-6.821c-16.349,2.883 -40.087,26.139 -71.216,69.769c-15.73,21.844 -33.233,50.045 -52.51,84.604l-17.708,34.282Z" style="fill:#fff;fill-rule:nonzero;"/><path d="M1746.5,1820.53c-2.016,2.569 -4.401,4.734 -7.156,6.497c-2.754,1.763 -6.03,2.979 -9.828,3.649c-3.798,0.669 -7.314,-0.2 -10.549,-2.61c-3.234,-2.409 -5.171,-5.431 -5.812,-9.064c-0.641,-3.633 -0.548,-6.969 0.278,-10.01c0.826,-3.04 2.206,-5.837 4.139,-8.392c3.916,-5.798 8.722,-9.2 14.419,-10.204c5.698,-1.005 10.178,-0.22 13.441,2.355c3.264,2.574 5.216,5.678 5.857,9.311c0.64,3.633 0.506,6.977 -0.403,10.032c-0.908,3.055 -2.371,5.867 -4.386,8.436Zm-120.445,237.44c0.917,5.202 6.247,6.944 15.991,5.226c9.743,-1.718 18.556,-5.571 26.439,-11.558c7.884,-5.988 15.654,-13.104 23.309,-21.35c7.656,-8.246 14.913,-17.06 21.772,-26.443l18.363,-26.224c5.382,-8.101 9.776,-15.048 13.182,-20.842c3.405,-5.794 5.448,-9.176 6.128,-10.147l5.741,3.585c-1.361,1.942 -3.838,5.997 -7.433,12.165c-3.595,6.168 -8.145,13.44 -13.649,21.818c-5.504,8.377 -11.768,17.272 -18.792,26.683c-7.024,9.412 -14.578,18.236 -22.661,26.472c-18.595,19.114 -35.901,30.083 -51.92,32.908c-10.238,1.805 -18.74,1.388 -25.505,-1.25c-6.766,-2.638 -10.57,-6.352 -11.415,-11.141c-0.844,-4.789 -1.106,-9.17 -0.785,-13.142c0.321,-3.973 1.337,-8.835 3.047,-14.585c1.711,-5.75 4.293,-12.591 7.748,-20.522c3.454,-7.931 8.064,-17.513 13.831,-28.746c5.767,-11.233 12.867,-24.319 21.301,-39.257l30.197,-51.809c2.069,0.146 6.159,-0.32 12.269,-1.397l11.642,-2.053c4.293,-0.757 7.732,-1.534 10.316,-2.33c-43.159,74.868 -67.371,117.406 -72.637,127.614c-5.267,10.208 -9.1,18.163 -11.5,23.865c-4.237,9.771 -5.896,17.258 -4.979,22.46Z" style="fill:#fff;fill-rule:nonzero;"/><path d="M1739.73,2037.8c0.874,4.954 5.289,6.815 13.244,5.583c7.956,-1.233 15.618,-4.372 22.987,-9.417c7.368,-5.045 14.521,-11.074 21.457,-18.087c6.937,-7.012 13.502,-14.682 19.696,-23.011c6.193,-8.329 11.899,-16.529 17.116,-24.6c5.218,-8.071 9.847,-15.614 13.889,-22.626l10.173,-17.629l6.192,3.25l-10.26,17.133c-36.435,62.785 -70.341,96.943 -101.717,102.476c-9.083,1.601 -16.215,0.986 -21.397,-1.846c-5.182,-2.833 -8.151,-6.396 -8.908,-10.689c-0.757,-4.294 -1.177,-7.881 -1.259,-10.761c-0.082,-2.88 0.239,-6.129 0.963,-9.747c0.724,-3.619 1.958,-7.965 3.703,-13.04c1.744,-5.076 4.181,-11.295 7.31,-18.657l28.814,-62.548l48.054,-101.186l-19.569,3.451c-4.954,0.873 -7.642,0.113 -8.065,-2.282c-0.422,-2.394 2.505,-4.145 8.78,-5.251l22.541,-3.975l34.47,-72.484c11.88,-0.222 23.357,-2.245 34.431,-6.071l-36.451,72.833l63.908,-11.268c4.624,-0.816 7.147,-0.026 7.569,2.368c0.422,2.395 -1.431,3.956 -5.559,4.684l-70.101,12.361l-77.96,157.541c-13.273,28.051 -20.68,45.193 -22.22,51.424c-1.541,6.231 -2.151,10.255 -1.831,12.071Z" style="fill:#fff;fill-rule:nonzero;"/><path d="M1973.21,2011.95c-16.514,2.912 -25.673,-0.751 -27.478,-10.99c-1.485,-8.422 1.44,-19.835 8.776,-34.239l12.111,-22.569l-2.652,-0.554c-21.715,39.076 -44.104,65.159 -67.166,78.25c-6.363,3.505 -12.022,5.695 -16.976,6.569c-20.312,3.581 -32.375,-5.445 -36.19,-27.078c-4.484,-25.431 1.392,-51.497 17.627,-78.197c23.882,-40.309 50.448,-66.363 79.698,-78.161c8.762,-3.418 16.363,-5.694 22.804,-6.83c6.44,-1.136 11.598,-1.577 15.474,-1.324c3.875,0.253 7.363,0.958 10.461,2.114c6.615,2.75 10.41,6.891 11.385,12.423c0.976,5.532 0.909,10.95 -0.199,16.254l18.991,-34.253c4.691,0.535 8.936,0.467 12.734,-0.202c9.743,-1.718 16.704,-3.286 20.881,-4.704l-65.744,115.288c-15.74,26.614 -22.78,44.627 -21.121,54.04c0.932,5.284 4.536,7.373 10.811,6.267c6.275,-1.107 13.165,-4.28 20.67,-9.519c7.504,-5.24 14.778,-11.545 21.822,-18.917c7.043,-7.372 13.764,-15.368 20.161,-23.988c6.398,-8.62 12.247,-16.973 17.547,-25.059c5.3,-8.086 9.903,-15.538 13.809,-22.357l9.531,-15.472l5.944,3.294l-10.099,16.594c-37.864,63.377 -72.401,97.817 -103.612,103.32Zm-84.338,-77.075c-18.305,32.344 -25.871,57.516 -22.697,75.516c1.456,8.257 5.899,11.73 13.33,10.42c24.111,-4.251 54.169,-37.051 90.177,-98.397l16.396,-28.688c7.258,-16.774 10.291,-28.547 9.097,-35.318c-2.038,-11.559 -8.837,-16.32 -20.397,-14.282c-15.688,2.767 -35.871,20.117 -60.548,52.053c-8.443,11.024 -16.896,23.922 -25.358,38.696Z" style="fill:#fff;fill-rule:nonzero;"/></g><path d="M1024.6,1612.92c0,0 -53.917,-104.983 -229.814,-207.126c-175.93,-102.143 -326.299,-207.116 -297.931,-431.261c28.378,-224.156 524.905,-385.875 573.131,334.797c0,0 36.899,-62.426 158.89,-150.37c49.448,-35.649 89.574,-80.151 113.014,-125.385c34.396,-66.381 32.858,-134.339 -27.889,-178.215c-102.144,-73.764 -292.241,-2.829 -292.241,-2.829c0,-0 93.623,-68.106 209.956,-65.266c116.332,2.84 244.014,96.463 204.297,263.872c-39.738,167.399 -309.27,295.081 -383.035,470.989c0,0 5.659,-397.224 -150.39,-581.652c-156.05,-184.417 -363.166,-14.189 -249.673,181.599c113.492,195.767 280.891,249.684 371.685,490.847Z" style="fill:#ed155b;fill-rule:nonzero;"/><path d="M465.267,2215.44c151.185,-263.064 404.099,-439.475 704.983,-521.211c408.553,-110.984 905.55,-47.412 1356.4,210.797l12.144,7.279c-757.845,-492.999 -1686.07,-406.479 -2077.6,194.326l4.066,108.809Z" style="fill:#727272;fill-opacity:0.8;fill-rule:nonzero;"/></g></svg>